<svg width="46" height="46" viewBox="0 0 46 46" fill="none" xmlns="http://www.w3.org/2000/svg">
<g clip-path="url(#clip0_1579_8736)">
<path d="M22.521 4.32113C28.5321 4.32113 29.2439 4.3475 31.6079 4.45295C33.805 4.54962 34.9914 4.91873 35.7823 5.22631C36.8281 5.63057 37.5839 6.12271 38.3661 6.90486C39.157 7.6958 39.6404 8.44279 40.0446 9.48859C40.3522 10.2795 40.7213 11.4747 40.818 13.663C40.9234 16.0358 40.9498 16.7476 40.9498 22.75C40.9498 28.7611 40.9234 29.4729 40.818 31.837C40.7213 34.034 40.3522 35.2204 40.0446 36.0113C39.6404 37.0571 39.1482 37.8129 38.3661 38.5951C37.5751 39.386 36.8281 39.8694 35.7823 40.2736C34.9914 40.5812 33.7962 40.9503 31.6079 41.047C29.2351 41.1524 28.5233 41.1788 22.521 41.1788C16.5098 41.1788 15.798 41.1524 13.434 41.047C11.2369 40.9503 10.0505 40.5812 9.25958 40.2736C8.21379 39.8694 7.458 39.3772 6.67585 38.5951C5.88492 37.8041 5.40157 37.0571 4.99731 36.0113C4.68972 35.2204 4.32062 34.0252 4.22395 31.837C4.11849 29.4641 4.09213 28.7523 4.09213 22.75C4.09213 16.7388 4.11849 16.027 4.22395 13.663C4.32062 11.4659 4.68972 10.2795 4.99731 9.48859C5.40157 8.44279 5.8937 7.68701 6.67585 6.90486C7.46679 6.11392 8.21379 5.63057 9.25958 5.22631C10.0505 4.91873 11.2457 4.54962 13.434 4.45295C15.798 4.3475 16.5098 4.32113 22.521 4.32113ZM22.521 0.269775C16.4132 0.269775 15.6486 0.29614 13.2494 0.401598C10.859 0.507057 9.21564 0.893737 7.79195 1.44739C6.30675 2.02741 5.05004 2.79199 3.80212 4.0487C2.5454 5.29662 1.78083 6.55333 1.20081 8.02975C0.647155 9.46222 0.260474 11.0968 0.155016 13.4872C0.0495579 15.8952 0.0231934 16.6597 0.0231934 22.7675C0.0231934 28.8753 0.0495579 29.6399 0.155016 32.0391C0.260474 34.4295 0.647155 36.0729 1.20081 37.4965C1.78083 38.9818 2.5454 40.2385 3.80212 41.4864C5.05004 42.7343 6.30675 43.5077 7.78317 44.0789C9.21564 44.6326 10.8502 45.0192 13.2406 45.1247C15.6398 45.2302 16.4044 45.2565 22.5122 45.2565C28.62 45.2565 29.3845 45.2302 31.7837 45.1247C34.1741 45.0192 35.8175 44.6326 37.2412 44.0789C38.7176 43.5077 39.9743 42.7343 41.2222 41.4864C42.4701 40.2385 43.2435 38.9818 43.8147 37.5053C44.3684 36.0729 44.7551 34.4383 44.8605 32.0479C44.966 29.6487 44.9924 28.8841 44.9924 22.7763C44.9924 16.6685 44.966 15.904 44.8605 13.5048C44.7551 11.1144 44.3684 9.47101 43.8147 8.04732C43.2611 6.55333 42.4965 5.29662 41.2398 4.0487C39.9919 2.80077 38.7352 2.02741 37.2588 1.45618C35.8263 0.902525 34.1917 0.515845 31.8013 0.410386C29.3933 0.29614 28.6288 0.269775 22.521 0.269775Z" fill="black"/>
<path d="M22.5208 11.2112C16.1406 11.2112 10.9644 16.3874 10.9644 22.7677C10.9644 29.1479 16.1406 34.3241 22.5208 34.3241C28.901 34.3241 34.0773 29.1479 34.0773 22.7677C34.0773 16.3874 28.901 11.2112 22.5208 11.2112ZM22.5208 30.264C18.3816 30.264 15.0245 26.9069 15.0245 22.7677C15.0245 18.6284 18.3816 15.2713 22.5208 15.2713C26.6601 15.2713 30.0171 18.6284 30.0171 22.7677C30.0171 26.9069 26.6601 30.264 22.5208 30.264Z" fill="black"/>
<path d="M37.2324 10.7539C37.2324 12.2479 36.0196 13.4519 34.5344 13.4519C33.0404 13.4519 31.8364 12.2391 31.8364 10.7539C31.8364 9.25989 33.0492 8.05591 34.5344 8.05591C36.0196 8.05591 37.2324 9.26868 37.2324 10.7539Z" fill="black"/>
</g>
<defs>
<clipPath id="clip0_1579_8736">
<rect width="44.9955" height="44.9955" fill="white" transform="translate(0.0231934 0.269775)"/>
</clipPath>
</defs>
</svg>
